Coordinates
version=1
nRows=10
nColumns=63
inDegrees=yes

Units are S.I. units (second, meters, Newtons, ...)
If the header above contains a line with 'inDegrees', this indicates whether rotational values are in degrees (yes) or radians (no).

endheader
time	pelvis_tilt	pelvis_list	pelvis_rotation	pelvis_tx	pelvis_ty	pelvis_tz	hip_flexion_r	hip_adduction_r	hip_rotation_r	knee_angle_r	knee_angle_r_beta	ankle_angle_r	subtalar_angle_r	mtp_angle_r	hip_flexion_l	hip_adduction_l	hip_rotation_l	knee_angle_l	knee_angle_l_beta	ankle_angle_l	subtalar_angle_l	mtp_angle_l	L5_S1_Flex_Ext	L5_S1_Lat_Bending	L5_S1_axial_rotation	L4_L5_Flex_Ext	L4_L5_Lat_Bending	L4_L5_axial_rotation	L3_L4_Flex_Ext	L3_L4_Lat_Bending	L3_L4_axial_rotation	L2_L3_Flex_Ext	L2_L3_Lat_Bending	L2_L3_axial_rotation	L1_L2_Flex_Ext	L1_L2_Lat_Bending	L1_L2_axial_rotation	L1_T12_Flex_Ext	L1_T12_Lat_Bending	L1_T12_axial_rotation	Abs_r3	Abs_r2	Abs_r1	Abs_t1	Abs_t2	neck_flexion	neck_bending	neck_rotation	arm_flex_r	arm_add_r	arm_rot_r	elbow_flex_r	pro_sup_r	wrist_flex_r	wrist_dev_r	arm_flex_l	arm_add_l	arm_rot_l	elbow_flex_l	pro_sup_l	wrist_flex_l	wrist_dev_l
0.000000	0.236861	-2.950603	85.406087	0.233891	0.895676	0.670120	6.873190	-0.174148	-5.056373	11.781429	0.205625	30.210526	17.204315	0.000000	3.126388	-1.005814	1.170889	4.687349	0.081810	21.716564	-13.806075	0.000000	0.119638	0.098854	1.498033	0.222179	0.131476	1.591660	0.196553	0.240355	1.591660	0.136734	0.240355	1.310779	0.111095	0.201584	1.217152	0.068361	0.153125	1.123525	0.854559	1.118261	8.331611	0.000000	0.000000	23.426576	0.763186	4.347359	3.212627	-6.877366	40.782355	32.728253	60.198065	-1.937879	13.200936	16.775435	-4.374725	79.686236	23.366703	41.376358	6.118251	-2.714827
0.019608	0.151397	-2.485675	84.465384	0.235719	0.897442	0.667006	5.992983	-0.161976	-3.647584	11.287601	0.197006	29.627412	16.593604	0.000000	2.034164	-0.821655	0.501524	4.168312	0.072751	20.937232	-14.222660	0.000000	0.148414	0.073908	1.616156	0.275619	0.098298	1.717165	0.243829	0.179700	1.717165	0.169622	0.179700	1.414136	0.137817	0.150714	1.313126	0.084803	0.114484	1.212117	1.060103	0.836064	8.988572	0.000000	0.000000	21.960658	0.855040	3.227572	3.364484	-6.512393	42.318712	35.154515	51.739366	-1.533143	13.074236	15.728652	-5.054220	75.784152	26.032549	51.392740	5.498232	-2.975857
0.039216	0.085748	-2.050098	83.669058	0.237332	0.899013	0.664167	5.166346	-0.151168	-2.424573	10.819452	0.188835	29.143993	16.092710	0.000000	1.040500	-0.665497	-0.083240	3.703757	0.064643	20.293791	-14.545672	0.000000	0.172652	0.050220	1.721024	0.320632	0.066792	1.828588	0.283650	0.122104	1.828588	0.197324	0.122104	1.505896	0.160324	0.102408	1.398332	0.098653	0.077790	1.290768	1.233235	0.568093	9.571820	0.000000	0.000000	20.639306	0.954700	2.083955	3.475450	-6.201693	43.630875	37.215783	44.460370	-1.218999	13.054156	14.797657	-5.665411	72.345075	28.402068	59.610455	5.105302	-2.904519
0.058824	0.037954	-1.645479	83.007863	0.238739	0.900394	0.661601	4.396169	-0.141601	-1.377323	10.378865	0.181145	28.752235	15.693046	0.000000	0.144540	-0.535442	-0.588035	3.292566	0.057466	19.775163	-14.783204	0.000000	0.192729	0.027872	1.812926	0.357917	0.037069	1.926234	0.316635	0.067767	1.926234	0.220270	0.067767	1.586310	0.178968	0.056836	1.473002	0.110125	0.043173	1.359695	1.376644	0.315289	10.082951	0.000000	0.000000	19.458653	1.060196	0.932061	3.551843	-5.940837	44.737884	38.937264	38.289258	-0.986495	13.123493	13.976318	-6.210930	69.340822	30.487966	66.177007	4.912503	-2.551640
0.078431	0.006056	-1.273429	82.472555	0.239949	0.901593	0.659306	3.685342	-0.133154	-0.495821	9.967723	0.173970	28.444109	15.386028	0.000000	-0.654570	-0.429592	-1.017496	2.933624	0.051201	19.370271	-14.943347	0.000000	0.209022	0.006948	1.892149	0.388174	0.009241	2.010408	0.343402	0.016893	2.010408	0.238891	0.016893	1.655630	0.194098	0.014168	1.537371	0.119435	0.010762	1.419112	1.493022	0.078594	10.523564	0.000000	0.000000	18.414834	1.169559	-0.212563	3.599980	-5.725400	45.658781	40.344163	33.154209	-0.826679	13.265046	13.258502	-6.693408	66.743212	32.302948	71.239901	4.892874	-1.968053
0.098039	-0.011905	-0.935558	82.053889	0.240970	0.902617	0.657280	3.036756	-0.125703	0.229947	9.587909	0.167341	28.211583	15.163069	0.000000	-1.357684	-0.346047	-1.376254	2.625815	0.045829	19.068039	-15.034197	0.000000	0.221907	-0.012469	1.958980	0.412103	-0.016584	2.081416	0.364570	-0.030317	2.081416	0.253617	-0.030317	1.714107	0.206062	-0.025426	1.591671	0.126797	-0.019314	1.469235	1.585057	-0.141050	10.895257	0.000000	0.000000	17.503984	1.280820	-1.334365	3.626178	-5.550954	46.412604	41.461686	28.983402	-0.730601	13.461611	12.638079	-7.115476	64.524060	33.859721	74.946639	5.019457	-1.204587
0.117647	-0.017889	-0.633474	81.742620	0.241810	0.903473	0.655522	2.453300	-0.119125	0.809995	9.241308	0.161291	28.046625	15.015584	0.000000	-1.965658	-0.282908	-1.668943	2.368021	0.041330	18.857389	-15.063844	0.000000	0.231760	-0.030295	2.013706	0.430401	-0.040292	2.139562	0.380758	-0.073659	2.139562	0.264878	-0.073659	1.761993	0.215212	-0.061777	1.636136	0.132428	-0.046927	1.510279	1.655438	-0.342701	11.199628	0.000000	0.000000	16.722237	1.392009	-2.417796	3.636755	-5.413071	47.018394	42.315041	25.705016	-0.689310	13.695986	12.108915	-7.479766	62.655185	35.170992	77.444726	5.265290	-0.312072
0.137255	-0.013854	-0.368788	81.529503	0.242478	0.904167	0.654031	1.937866	-0.113298	1.254338	8.929802	0.155854	27.941206	14.934986	0.000000	-2.479347	-0.238278	-1.900196	2.159127	0.037684	18.727243	-15.040383	0.000000	0.238959	-0.046447	2.056615	0.443770	-0.061775	2.185153	0.392585	-0.112931	2.185153	0.273106	-0.112931	1.799538	0.221897	-0.094715	1.670999	0.136541	-0.071947	1.542461	1.706857	-0.525418	11.438274	0.000000	0.000000	16.065727	1.501158	-3.447307	3.638027	-5.307325	47.495192	42.929433	23.247231	-0.693854	13.950968	11.664878	-7.788907	61.108405	36.249467	78.881666	5.603416	0.658661
0.156863	-0.001760	-0.143109	81.405294	0.242982	0.904708	0.652804	1.493344	-0.108098	1.572990	8.655275	0.151063	27.887293	14.912690	0.000000	-2.899605	-0.210256	-2.074647	1.998016	0.034872	18.666526	-14.971906	0.000000	0.243879	-0.060842	2.087993	0.452907	-0.080920	2.218493	0.400668	-0.147932	2.218493	0.278729	-0.147932	1.826994	0.226466	-0.124069	1.696495	0.139352	-0.094245	1.565995	1.742002	-0.688260	11.612793	0.000000	0.000000	15.530589	1.606297	-4.407347	3.636312	-5.229289	47.862037	43.330069	21.538227	-0.735282	14.209354	11.299836	-8.045533	59.855535	37.107852	79.404963	6.006874	1.656781
0.176471	0.016434	0.041954	81.360747	0.243331	0.905101	0.651839	1.122624	-0.103404	1.775964	8.419610	0.146950	27.876855	14.940109	0.000000	-3.227286	-0.196945	-2.196929	1.883572	0.032875	18.664159	-14.866506	0.000000	0.246897	-0.073397	2.108129	0.458513	-0.097618	2.239887	0.405628	-0.178458	2.239887	0.282179	-0.178458	1.844613	0.229269	-0.149671	1.712855	0.141077	-0.113692	1.581097	1.763563	-0.830283	11.724783	0.000000	0.000000	15.112958	1.705456	-5.282366	3.637927	-5.174536	48.137970	43.542154	20.506181	-0.804642	14.453942	11.007656	-8.252273	58.868394	37.758853	79.162120	6.448705	2.631459
